PathFileType	4	(X/Y/Z)	G:\TennisProject\Miami_Dimitrov_Sinner_masked_Sports2D\Miami_Dimitrov_Sinner_masked_Sports2D_px_person02.trc
DataRate	CameraRate	NumFrames	NumMarkers	Units	OrigDataRate	OrigDataStartFrame	OrigNumFrames
25	25	6	22	m	25	311	499
Frame#	Time	Hip			RHip			RKnee			RAnkle			RBigToe			RSmallToe			RHeel			LHip			LKnee			LAnkle			LBigToe			LSmallToe			LHeel			Neck			Head			Nose			RShoulder			RElbow			RWrist			LShoulder			LElbow			LWrist		
		X1	Y1	Z1	X2	Y2	Z2	X3	Y3	Z3	X4	Y4	Z4	X5	Y5	Z5	X6	Y6	Z6	X7	Y7	Z7	X8	Y8	Z8	X9	Y9	Z9	X10	Y10	Z10	X11	Y11	Z11	X12	Y12	Z12	X13	Y13	Z13	X14	Y14	Z14	X15	Y15	Z15	X16	Y16	Z16	X17	Y17	Z17	X18	Y18	Z18	X19	Y19	Z19	X20	Y20	Z20	X21	Y21	Z21	X22	Y22	Z22
311	12.44	1325.5731867430377	174.066207641863	0.0	1319.7687159718846	175.02162542719935	0.0	1317.6800396312426	195.88617268534574	0.0	1315.4372093231755	217.84974055540806	0.0	1315.380885324302	222.46942793165732	0.0	1312.540983493373	222.19043515286072	0.0	1315.6315478637707	220.68831056888507	0.0	1330.4346853447105	175.3540689822189	0.0	1330.7566141996613	196.09697065127756	0.0	1330.641218600516	218.2204500167503	0.0	1331.61620655445	222.16401057764574	0.0	1333.815461302783	222.0323932260476	0.0	1329.3834641888886	220.93747861631982	0.0	1326.6454919837429	143.5283227108026	0.0	1326.9031078990902	130.00198461308383	0.0	1326.85276150751	137.67756853091353	0.0	1316.7304989290296	149.15996595732497	0.0	1314.0919389756327	162.31495513183728	0.0	1321.0402980944984	167.74063447629436	0.0	1336.2270546769732	149.39849841968282	0.0	1337.5060578836801	162.81272470111242	0.0	1330.2868103345052	166.96485274077216	0.0
312	12.48	1325.4335703775992	174.14506708102664	0.0	1319.714145912683	175.0133518749759	0.0	1317.5408264685757	196.20071453566612	0.0	1315.323880256991	218.1907275837736	0.0	1315.2168155765446	222.5728921467517	0.0	1312.3622399578362	222.39234133736545	0.0	1315.5669154966138	220.972670388363	0.0	1330.4004643798485	175.38512622595593	0.0	1330.7028391494312	196.27182673228677	0.0	1330.4856607878928	218.24100349831264	0.0	1331.461747338744	222.08806646051278	0.0	1333.7826391668384	221.89493659840406	0.0	1328.9563470373691	220.84497228856986	0.0	1326.7022723180264	143.5959709690709	0.0	1326.969915371617	129.90352680201653	0.0	1326.7830091033236	137.62737563349188	0.0	1316.6882070336048	149.1418155885948	0.0	1314.0275630724777	162.33084038346885	0.0	1321.158154153025	167.97055661154647	0.0	1336.3120551361833	149.39305461679345	0.0	1337.4396476179322	162.38884824739276	0.0	1330.2910572801734	167.37087908012597	0.0
313	12.52	1325.282948930707	174.23303788515437	0.0	1319.451851558054	175.04645773923903	0.0	1317.361231752	196.20847916660603	0.0	1315.131273202049	218.24314885219908	0.0	1315.1578980748282	222.7345531220285	0.0	1312.3182116563742	222.60063841971655	0.0	1315.5812623281026	220.87113234609583	0.0	1330.266316065912	175.37938597525877	0.0	1330.463475075117	196.20042303683977	0.0	1330.2578746505646	218.16382606989492	0.0	1331.4371813163445	222.24824597264103	0.0	1333.659923000675	221.97863452291165	0.0	1328.6430331510248	220.88110683186198	0.0	1326.6236352906003	143.39663479547679	0.0	1326.9772549053107	129.73705511177707	0.0	1326.6940380397566	137.43652121114226	0.0	1316.5474959831904	149.0759105196527	0.0	1313.779003663842	162.4272892710403	0.0	1320.8698010263379	168.13773273302942	0.0	1336.0838422481097	149.4326516336744	0.0	1337.165202486051	162.16514450014643	0.0	1330.2218957595337	167.60965490073357	0.0
314	12.56	1325.222421221898	174.2442630963909	0.0	1319.2759835435158	174.9943535414161	0.0	1317.2946847911026	196.1165469082398	0.0	1315.099261066398	218.18649005492307	0.0	1315.3229451314119	222.83116996347	0.0	1312.4723814481463	222.63176188476388	0.0	1315.6568933773517	220.73099338827325	0.0	1330.1437903994852	175.2981483805006	0.0	1330.349228057256	196.11714316802772	0.0	1330.1266260249474	218.14948585218602	0.0	1331.4828353759503	222.39626854865955	0.0	1333.5396106081944	222.1020562770746	0.0	1328.5444033454341	220.97604772500821	0.0	1326.4776488485693	143.24275856047913	0.0	1326.885031922612	129.6928883488257	0.0	1326.5888380366523	137.36561751365622	0.0	1316.375991407587	148.986892449259	0.0	1313.6118346556666	162.52786425383428	0.0	1320.58019210425	168.2448520570703	0.0	1335.8270925183926	149.40900976104018	0.0	1336.9424900182776	162.21848056298796	0.0	1330.149579135381	167.6945889208352	0.0
315	12.6	1325.273470950242	174.22476683925026	0.0	1319.416088372538	174.90821662535924	0.0	1317.391569027629	196.2099456720282	0.0	1315.2843985184397	218.288505658725	0.0	1315.4427927312988	222.73244323466577	0.0	1312.5947750659623	222.4628457077784	0.0	1315.6395060274524	220.85588286562432	0.0	1330.2330749684256	175.23743248088778	0.0	1330.5618179049452	196.20670946033752	0.0	1330.2345756768318	218.2294888964607	0.0	1331.462939028473	222.26029873774803	0.0	1333.5607627219113	221.98545679319355	0.0	1328.5282811139539	220.96226158519565	0.0	1326.487895532736	143.3536565478567	0.0	1326.846378986151	129.78129657537028	0.0	1326.5740210483837	137.51611213812913	0.0	1316.3783974057872	148.94475688037502	0.0	1313.707671085534	162.48820324230107	0.0	1320.745409863533	168.39601733134907	0.0	1335.9151478049712	149.302759301555	0.0	1337.0081368279618	162.32150708475743	0.0	1330.178050603544	167.8342836409234	0.0
316	12.64	1325.3686642708826	174.25867945460803	0.0	1319.620038410323	174.98038536255808	0.0	1317.4727820154008	196.30920655895335	0.0	1315.408126056197	218.34607976837341	0.0	1315.2996127596416	222.5624026462907	0.0	1312.5267530488734	222.28527849466235	0.0	1315.5924501880072	220.93931426643957	0.0	1330.3776469881777	175.27295283783204	0.0	1330.7671444100438	196.2288666642291	0.0	1330.3919640346053	218.2394738502576	0.0	1331.4083254240147	222.06747789292461	0.0	1333.6571225651683	221.80679406317543	0.0	1328.503636515602	220.86976873048192	0.0	1326.5464445812472	143.49550121122118	0.0	1326.882127489058	129.82856797076366	0.0	1326.621545136477	137.60580078390217	0.0	1316.480279876674	148.9701052111448	0.0	1313.8269491542417	162.401753610049	0.0	1321.0276036141809	168.46187809197585	0.0	1336.098805256099	149.23510787726173	0.0	1337.153443693581	162.3526871903475	0.0	1330.1934275564067	167.92450711302996	0.0
